# xmcd
#
# Track frame offsets:
#	183
#	13143
#	32790
#	44538
#	66083
#	86725
#	108670
#	127168
#	143903
#	159565
#	178883
#	199410
#
# Disc length: 2866 seconds
#
# Revision: 0
# Processed by: cddbd v1.5.1PL0 Copyright (c) Steve Scherf et al.
# Submitted via: dBpowerAMP V4.0
#
DISCID=b80b300c
DTITLE=Various Artist - Love Songs Are Forver Vol. 2
DYEAR=1900
DGENRE=Blues
TTITLE0=01. England Dan and John Ford Coley - It Sad To Belong
TTITLE1=02. Al Jarreau - After All
TTITLE2=03. Bread - If
TTITLE3=04. Chaka Khan - Through The Fire
TTITLE4=05. Glen Frey - The One You Love
TTITLE5=06. Eagles - I Can't Tell You Why
TTITLE6=07. The Spinners - Just As Long As We Have Love
TTITLE7=08. Peter Cetera and Amy Grant - The Next Time I Fall
TTITLE8=09. Patti Austin - If I Believe
TTITLE9=10. Christopher Cross - Sailing
TTITLE10=11. The Manhattan Transfer - Smile Again
TTITLE11=12. Kenny Rankin - On And On
EXTD=
EXTT0=
EXTT1=
EXTT2=
EXTT3=
EXTT4=
EXTT5=
EXTT6=
EXTT7=
EXTT8=
EXTT9=
EXTT10=
EXTT11=
PLAYORDER=
